<?xml version="1.0" encoding="iso-8859-1"?>
<!-- Uploaded to: SVG Repo, www.svgrepo.com, Generator: SVG Repo Mixer Tools -->
<svg fill="#b666d2" height="800px" width="800px" version="1.1" id="Layer_1" xmlns="http://www.w3.org/2000/svg" xmlns:xlink="http://www.w3.org/1999/xlink" 
	 viewBox="0 0 512 512" xml:space="preserve">
<g>
	<g>
		<path d="M491.758,268.954c-2.058-2.264-4.248-4.358-6.53-6.314c17.733-29.272,26.395-57.878,26.395-87.024
			c0-37.723-13.05-73.004-36.747-99.343c-24.784-27.548-59.133-42.718-96.72-42.718c-41.624,0-78.837,19.532-107.618,56.482
			c-5.787,7.43-10.674,14.853-14.727,21.735c-4.053-6.882-8.94-14.305-14.727-21.735c-28.781-36.951-65.994-56.482-107.618-56.482
			c-37.588,0-71.936,15.171-96.72,42.718C13.05,102.612,0,137.892,0,175.616c0,42.873,18.486,84.132,58.177,129.842
			c35.067,40.386,84.664,82.368,142.09,130.98c14.408,12.195,29.305,24.807,44.687,37.99c3.124,2.678,6.99,4.016,10.857,4.016
			c3.866,0,7.734-1.339,10.858-4.016c15.37-13.174,30.258-25.777,44.656-37.965c1.85-1.566,3.676-3.112,5.507-4.662
			c8.995,7.783,18.587,15.829,28.676,24.284c7.048,5.908,14.338,12.016,21.853,18.395c3.113,2.642,6.955,3.963,10.795,3.963
			s7.682-1.321,10.795-3.963c7.515-6.379,14.805-12.488,21.853-18.395C469.553,406.848,512,371.273,512,322.951
			C512,302.496,504.812,283.32,491.758,268.954z M255.811,439.812c-11.625-9.913-22.948-19.5-33.986-28.842
			c-56.378-47.723-105.067-88.938-138.454-127.389c-34.582-39.828-50.004-73.125-50.004-107.965
			c0-61.965,43.033-108.694,100.1-108.694c31.121,0,58.279,14.429,80.721,42.887c17.75,22.509,25.74,45.64,25.808,45.837
			c2.276,6.783,8.631,11.342,15.786,11.358c0.012,0,0.023,0,0.037,0c7.141,0,13.498-4.562,15.799-11.325
			c0.079-0.231,8.069-23.361,25.819-45.871c22.44-28.457,49.599-42.886,80.72-42.886c57.067,0,100.1,46.729,100.1,108.694
			c0,23.893-7.305,46.976-22.85,71.859c-5.573-1.324-11.364-2.026-17.307-2.026c-28.844,0-48.074,15.901-59.943,31.329
			c-11.87-15.428-31.099-31.329-59.943-31.329c-20.829,0-39.885,8.347-53.659,23.506c-13.054,14.365-20.242,33.542-20.242,53.997
			c0,31.755,18.334,58.006,47.578,86.247C291.179,409.801,267.425,429.908,255.811,439.812z M389.372,430.512
			c-3.673,3.079-7.411,6.211-11.216,9.412c-3.806-3.2-7.543-6.333-11.216-9.412c-51.821-43.431-89.262-74.812-89.262-107.561
			c0-25.163,17.426-44.137,40.535-44.137c30.68,0,43.555,35.557,44.162,37.287c2.311,6.74,8.639,11.307,15.768,11.307
			c7.15,0,13.493-4.52,15.788-11.292c0.533-1.523,13.392-37.303,44.166-37.303c23.109,0,40.535,18.975,40.535,44.138
			C478.633,355.702,441.193,387.082,389.372,430.512z"/>
	</g>
</g>
</svg>