<?xml version="1.0" encoding="iso-8859-1"?>
<!-- Uploaded to: SVG Repo, www.svgrepo.com, Generator: SVG Repo Mixer Tools -->
<svg fill="#dda0dd" height="800px" width="800px" version="1.1" id="Layer_1" xmlns="http://www.w3.org/2000/svg" xmlns:xlink="http://www.w3.org/1999/xlink" 
	 viewBox="0 0 512.001 512.001" xml:space="preserve">
<g>
	<g>
		<path d="M378.154,33.557c-64.734,0-103.042,45.167-122.344,78.04c-19.301-32.873-57.609-78.04-122.344-78.04
			C57.376,33.557,0,94.631,0,175.62c0,102.358,105.514,179.334,244.953,298.806c3.123,2.683,6.989,4.018,10.856,4.018
			s7.733-1.341,10.856-4.018c8.288-7.104,16.415-14.021,24.417-20.813c-46.735-40.907-80.141-78.414-80.141-130.662
			c0-62.171,47.117-110.869,107.268-110.869c22.071,0,42.343,6.386,59.944,18.725c17.601-12.339,37.874-18.725,59.944-18.725
			c23.414,0,44.798,7.451,62.253,20.13c7.457-18.854,11.269-37.61,11.269-56.592C511.62,94.631,454.244,33.557,378.154,33.557z"/>
	</g>
</g>
<g>
	<g>
		<path d="M438.098,245.449c-28.849,0-48.073,15.901-59.944,31.33c-11.872-15.429-31.096-31.33-59.944-31.33
			c-41.442,0-73.901,34.045-73.901,77.503c0,54.031,53.044,92.123,123.05,151.528c3.112,2.645,6.957,3.964,10.796,3.964
			c3.839,0,7.684-1.32,10.796-3.964c70.029-59.426,123.05-97.506,123.05-151.528C512,279.494,479.534,245.449,438.098,245.449z"/>
	</g>
</g>
</svg>