<?xml version="1.0" encoding="utf-8"?><!-- Uploaded to: SVG Repo, www.svgrepo.com, Generator: SVG Repo Mixer Tools -->
<svg version="1.1" id="designs" xmlns="http://www.w3.org/2000/svg" xmlns:xlink="http://www.w3.org/1999/xlink" 
	 width="800px" height="800px" viewBox="0 0 32 32" xml:space="preserve">
<style type="text/css">
	.sketchy_een{fill:#b666d2;}
</style>
<path class="sketchy_een" d="M24.603,4.757c-0.029-0.038-0.06-0.074-0.089-0.111c-0.005-0.007-0.008-0.014-0.013-0.02
	C24.534,4.669,24.569,4.713,24.603,4.757z M26.403,12.594c-0.052,0.503-0.128,1.007-0.209,1.508
	c-0.072,0.469-0.14,0.943-0.247,1.408c-0.108,0.465-0.231,0.926-0.357,1.388c-0.12,0.429-0.231,0.864-0.383,1.285
	c-0.176,0.487-0.355,0.979-0.6,1.438c-0.219,0.409-0.495,0.792-0.776,1.161c-0.313,0.411-0.66,0.78-1.019,1.149
	c-0.359,0.367-0.71,0.718-1.125,1.023c-0.124,0.091-0.292,0.113-0.457,0.11c-0.192,0.539-0.383,1.079-0.575,1.616
	c-0.09,0.25-0.178,0.501-0.267,0.752c-0.078,0.22-0.158,0.441-0.244,0.659c0.078,0.129,0.136,0.272,0.139,0.432
	c0.022,1.131,0.13,2.256,0.205,3.383c0.03,0.439-0.389,0.806-0.806,0.806c-0.057,0-0.109-0.021-0.164-0.032
	c-0.148,0.192-0.368,0.326-0.624,0.321c-0.541-0.008-1.085-0.018-1.624-0.07c-0.535-0.05-1.075-0.042-1.612-0.048
	c-1.137-0.012-2.276-0.022-3.413-0.07c-0.433-0.02-0.796-0.349-0.796-0.798c0-0.052,0.02-0.1,0.031-0.151
	c-0.095-0.133-0.162-0.287-0.168-0.461c-0.036-0.997-0.066-1.995-0.098-2.994c-0.001-0.035,0.015-0.066,0.019-0.1
	c-0.014-0.058-0.037-0.115-0.037-0.175c0-0.006,0.003-0.011,0.004-0.018c-0.006-0.01-0.017-0.016-0.022-0.026
	c-0.231-0.489-0.383-0.999-0.517-1.52c-0.138-0.537-0.265-1.077-0.385-1.616c-0.056-0.245-0.002-0.488,0.127-0.683
	c0.003-0.043,0.015-0.083,0.025-0.124c-0.47-0.388-0.934-0.791-1.325-1.258c-0.483-0.573-0.922-1.177-1.299-1.823
	c-0.469-0.804-0.922-1.626-1.277-2.486c-0.176-0.431-0.345-0.866-0.489-1.309c-0.144-0.441-0.287-0.898-0.355-1.359
	c-0.14-0.955-0.205-1.941-0.152-2.906C5.562,10.47,5.616,9.917,5.762,9.4c0.122-0.425,0.257-0.846,0.413-1.261
	C6.35,7.671,6.528,7.196,6.755,6.751C6.977,6.32,7.25,5.935,7.549,5.554c0.537-0.686,1.085-1.4,1.734-1.981
	c0.68-0.608,1.398-1.197,2.238-1.568c0.455-0.2,0.914-0.365,1.398-0.483c0.395-0.096,0.794-0.177,1.195-0.245
	c0.087-0.015,0.175-0.022,0.262-0.036c0.015-0.01,0.022-0.028,0.037-0.037c0.138-0.08,0.289-0.12,0.449-0.122
	c0.094,0,0.184,0.026,0.272,0.055C15.758,1.06,16.384,1.004,17.013,1c0.018,0,0.036,0,0.054,0c0.492,0,0.989,0.027,1.474,0.104
	c0.443,0.07,0.87,0.217,1.285,0.387c0.461,0.191,0.902,0.415,1.354,0.628c0.425,0.199,0.844,0.405,1.253,0.634
	c0.433,0.245,0.856,0.547,1.213,0.892c0.321,0.311,0.595,0.651,0.868,1.001C24.75,4.952,24.96,5.262,25.148,5.6
	c0.18,0.323,0.325,0.664,0.463,1.007c0.239,0.598,0.439,1.221,0.576,1.851c0.15,0.706,0.245,1.428,0.285,2.15
	C26.51,11.271,26.47,11.932,26.403,12.594z M17.043,2.946c-0.063,1.293-0.115,2.585-0.143,3.88c-0.032,1.454-0.02,2.907-0.018,4.361
	c0.002,1.716,0.032,3.431,0.028,5.145c-0.002,0.86-0.028,1.718-0.04,2.577c-0.006,0.441-0.008,0.884-0.004,1.325
	c0.004,0.431,0.002,0.862,0.044,1.291c0.002,0.02-0.011,0.04-0.012,0.061c0.248,0.007,0.496,0.013,0.744,0.02
	c0.003-0.004,0.002-0.009,0.005-0.014c0.207-0.321,0.375-0.666,0.547-1.005c0.162-0.321,0.325-0.64,0.479-0.963
	c0.297-0.617,0.576-1.244,0.846-1.872c0.315-0.779,0.605-1.573,0.77-2.397c0.158-0.786,0.281-1.578,0.4-2.37
	c0.083-0.669,0.129-1.335,0.129-2.011c0.002-0.709-0.067-1.421-0.148-2.122c-0.069-0.478-0.15-0.958-0.283-1.425
	c-0.13-0.457-0.282-0.9-0.459-1.34c-0.156-0.343-0.315-0.677-0.526-0.991c-0.194-0.234-0.41-0.447-0.614-0.673
	c-0.201-0.22-0.387-0.456-0.57-0.693c0.005,0.006,0.01,0.013,0.014,0.019c-0.205-0.265-0.412-0.529-0.619-0.793
	C17.425,2.95,17.234,2.948,17.043,2.946z M15.72,25.272c0.577-0.006,1.153-0.008,1.73-0.008c0.391-0.001,0.784-0.012,1.176-0.02
	c0.116-0.349,0.228-0.7,0.347-1.048c0.116-0.339,0.233-0.677,0.349-1.015c-0.53,0.004-1.06,0.01-1.593-0.001
	c-0.692-0.014-1.384-0.05-2.075-0.062c-1.214-0.021-2.427-0.007-3.641,0.004c0.064,0.291,0.126,0.582,0.194,0.872
	c0.09,0.386,0.181,0.772,0.323,1.142c0.02,0.043,0.041,0.087,0.062,0.129c0.01,0.021,0.012,0.042,0.021,0.063
	C13.648,25.295,14.683,25.282,15.72,25.272z M14.119,21.551c0.355,0.003,0.71,0.006,1.065,0.009
	c-0.001-0.012-0.007-0.022-0.008-0.034c-0.016-0.349-0.002-0.702-0.004-1.051c-0.002-0.355-0.006-0.708-0.006-1.063
	c-0.002-0.688,0.014-1.375,0.03-2.063c0.032-1.38,0.032-2.759,0.042-4.139c0.014-1.799,0.018-3.595,0.048-5.394
	c0.026-1.602,0.062-3.205,0.127-4.806c-0.09,0.008-0.181,0.012-0.271,0.021c-0.178,0.219-0.355,0.438-0.535,0.656
	c-0.065,0.083-0.13,0.167-0.195,0.25c-0.591,0.805-1.121,1.635-1.543,2.539c-0.25,0.61-0.469,1.228-0.632,1.867
	c-0.159,0.62-0.258,1.255-0.348,1.89c-0.098,0.86-0.143,1.719-0.159,2.583c-0.013,0.781,0.058,1.564,0.153,2.339
	c0.113,0.734,0.225,1.479,0.417,2.197c0.18,0.683,0.392,1.354,0.647,2.011c0.313,0.717,0.687,1.416,1.127,2.063
	C14.099,21.466,14.102,21.51,14.119,21.551z M14.586,3.713c-0.03,0.039-0.061,0.078-0.091,0.117
	c0.034-0.043,0.069-0.088,0.103-0.132C14.594,3.704,14.59,3.708,14.586,3.713z M10.061,19.398c0.257,0.312,0.522,0.607,0.819,0.881
	c0.321,0.297,0.67,0.568,1.011,0.84c0.12,0.095,0.182,0.255,0.217,0.415c0.034,0,0.067,0.001,0.101,0.001
	c-0.37-0.636-0.706-1.3-0.935-1.994c-0.277-0.834-0.505-1.67-0.676-2.532c-0.176-0.892-0.333-1.795-0.407-2.699
	c-0.04-0.471-0.066-0.94-0.074-1.414c-0.006-0.453,0.012-0.906,0.028-1.36c0.032-0.922,0.14-1.847,0.293-2.757
	c0.148-0.876,0.363-1.747,0.702-2.571c0.185-0.447,0.369-0.896,0.606-1.319c0.219-0.391,0.451-0.772,0.692-1.149
	c0.038-0.06,0.083-0.114,0.123-0.173c-0.064,0.022-0.132,0.033-0.195,0.058c-0.393,0.182-0.754,0.397-1.104,0.655
	c-0.498,0.397-0.965,0.814-1.393,1.286C9.441,6.028,9.03,6.501,8.644,6.995C8.358,7.39,8.131,7.805,7.931,8.248
	c-0.303,0.74-0.565,1.497-0.696,2.288c-0.075,0.899-0.035,1.813,0.066,2.71c0.171,1.019,0.53,2,0.925,2.957
	C8.721,17.327,9.327,18.413,10.061,19.398z M17.272,29.332c0.515,0.056,1.032,0.059,1.55,0.059
	c-0.041-0.362-0.084-0.723-0.117-1.086c-0.047-0.502-0.092-1.005-0.117-1.508c-0.533,0.004-1.067,0.007-1.6,0.003
	c-0.423-0.002-0.846-0.006-1.269-0.006c-0.948,0.001-1.895,0.041-2.841,0.084c0.012,0.785,0.015,1.57,0.033,2.354
	c0.916,0.036,1.831,0.068,2.748,0.071c0.144,0.002,0.291,0,0.437-0.002C16.49,29.297,16.883,29.292,17.272,29.332z M24.765,11.269
	c0.002-0.508-0.041-1.011-0.101-1.515c-0.073-0.471-0.163-0.936-0.296-1.395c-0.125-0.433-0.276-0.857-0.443-1.276
	c-0.21-0.443-0.45-0.858-0.739-1.251c-0.164-0.202-0.324-0.411-0.508-0.594c-0.175-0.175-0.355-0.338-0.544-0.493
	c-0.446-0.312-0.925-0.568-1.422-0.794c-0.039-0.018-0.078-0.035-0.117-0.053c0.29,0.35,0.544,0.723,0.739,1.139
	c0.329,0.708,0.596,1.432,0.792,2.188C22.327,8,22.426,8.8,22.506,9.594c0.072,0.712,0.11,1.44,0.076,2.154
	c-0.048,0.982-0.193,1.955-0.351,2.923c-0.14,0.878-0.315,1.749-0.604,2.589c-0.329,0.954-0.75,1.879-1.169,2.795
	c-0.182,0.401-0.379,0.794-0.576,1.189c-0.061,0.122-0.122,0.244-0.182,0.367c0.087-0.003,0.174-0.001,0.26-0.005
	c0.148-0.007,0.279,0.047,0.398,0.121c0.034-0.004,0.067-0.013,0.101-0.013c0.008,0,0.016,0.003,0.024,0.003
	c0.037-0.061,0.056-0.133,0.108-0.185c0.339-0.267,0.63-0.583,0.924-0.898c0.258-0.276,0.512-0.549,0.752-0.839
	c0.225-0.304,0.439-0.617,0.644-0.934c0.181-0.282,0.325-0.58,0.459-0.885c0.637-1.604,1.026-3.288,1.273-4.991
	C24.711,12.413,24.763,11.844,24.765,11.269z"/>
</svg>